<?xml version="1.0" encoding="iso-8859-1"?>
<!-- Uploaded to: SVG Repo, www.svgrepo.com, Generator: SVG Repo Mixer Tools -->
<svg height="800px" width="800px" version="1.1" id="Layer_1" xmlns="http://www.w3.org/2000/svg" xmlns:xlink="http://www.w3.org/1999/xlink" 
	 viewBox="0 0 384.4 384.4" xml:space="preserve">
<path style="fill:#B6EFFF;" d="M4,176.089c0-6.8,5.2-12,12-12h192c6.8,0,12,5.6,12,12v128c0,6.8-5.6,12-12,12h-95.6l-70.4,42l6-42
	H16c-6.8,0-12-5.6-12-12V176.089z"/>
<path style="fill:#D3F5FF;" d="M68,80.089c0-6.8,5.2-12,12-12h188l76-42l-8,42h32c6.8,0,12,5.2,12,12v192c0,6.8-5.2,12-12,12H80
	c-6.8,0-12-5.2-12-12V80.089z"/>
<g>
	<path style="fill:#64BCE0;" d="M42.4,362.089l63.2-38c4-2.4,10.4-4,14.8-4H208c8.8,0,16-7.2,16-16v-19.2h-8v19.2c0,4.4-3.6,8-8,8
		h-87.6c-6,0-14,2.4-18.8,5.2l-57.2,34c0.4,0,1.2,0,1.6,0l7.6-21.2c3.2-9.2-3.2-18-12.8-18H16c-4.4,0-8-3.6-8-8v-128
		c0-4.4,3.6-8,8-8h52.8v-8H16c-8.8,0-16,7.2-16,16v128c0,8.8,7.2,16,16,16h24.4c4.4,0,6.8,3.6,5.2,7.6l-9.6,28.8l0,0
		c0,0.4-0.4,0.4-0.4,0.8l-1.2,3.6c-1.6,4.4,0.4,5.6,4.4,3.6L42.4,362.089L42.4,362.089L42.4,362.089z"/>
	<path style="fill:#64BCE0;" d="M338.4,34.089l-54.8,32.8c-5.2,3.2-13.2,5.2-18.8,5.2H80c-4.4,0-8,3.6-8,8v192c0,4.4,3.6,8,8,8h288
		c4.4,0,8-3.6,8-8v-192c0-4.4-3.6-8-8-8h-23.2c-10,0-16.4-8.8-13.2-18L338.4,34.089z M64,80.089c0-8.8,7.2-16,16-16h184.8
		c4.4,0,11.2-2,14.8-4l66.8-40c3.6-2.4,5.6-0.8,4.4,3.6l-11.2,32.8c-1.6,4.4,0.8,7.6,5.6,7.6h23.2c8.8,0,16,7.2,16,16v192
		c0,8.8-7.2,16-16,16H80c-8.8,0-16-7.2-16-16V80.089L64,80.089z"/>
</g>
<g>
	<path style="fill:#E5F9FF;" d="M150,264.089l100-176h-33.2l-100,176H150L150,264.089z"/>
	<path style="fill:#E5F9FF;" d="M253.2,264.089l100-176h-72.8l-100,176h92.8H253.2z"/>
	<path style="fill:#E5F9FF;" d="M196,88.089h6l-100,176h-6L196,88.089z"/>
</g>
<g>
	<circle style="fill:#BDD0FB;" cx="148" cy="188.089" r="16"/>
	<circle style="fill:#BDD0FB;" cx="228" cy="188.089" r="16"/>
	<circle style="fill:#BDD0FB;" cx="308" cy="188.089" r="16"/>
</g>
<g>
	<circle style="fill:#A291FF;" cx="144" cy="176.089" r="16"/>
	<circle style="fill:#A291FF;" cx="224" cy="176.089" r="16"/>
	<circle style="fill:#A291FF;" cx="304" cy="176.089" r="16"/>
</g>
<path style="fill:#64BCE0;" d="M92,96.089L92,96.089v160c0,2.4,1.6,4,4,4h256c2,0,4-2,4-4v-160c0-2.4-1.6-4-4-4H96
	C93.6,92.089,92,94.089,92,96.089L92,96.089z M88,96.089c0-4.4,3.6-8,8-8h256c4.4,0,8,3.6,8,8v160c0,4.4-3.6,8-8,8H96
	c-4.4,0-8-3.6-8-8V96.089L88,96.089z"/>
<g>
	<path style="fill:#8D7CEB;" d="M144,188.089L144,188.089c6.8,0,12-5.2,12-12s-5.2-12-12-12s-12,5.2-12,12
		S137.2,188.089,144,188.089L144,188.089z M144,192.089L144,192.089c-8.8,0-16-7.2-16-16s7.2-16,16-16s16,7.2,16,16
		S152.8,192.089,144,192.089L144,192.089z"/>
	<path style="fill:#8D7CEB;" d="M224,188.089L224,188.089c6.8,0,12-5.2,12-12s-5.2-12-12-12s-12,5.2-12,12
		S217.2,188.089,224,188.089L224,188.089z M224,192.089L224,192.089c-8.8,0-16-7.2-16-16s7.2-16,16-16s16,7.2,16,16
		S232.8,192.089,224,192.089L224,192.089z"/>
	<path style="fill:#8D7CEB;" d="M304,188.089L304,188.089c6.8,0,12-5.2,12-12s-5.2-12-12-12s-12,5.2-12,12
		S297.2,188.089,304,188.089L304,188.089z M304,192.089L304,192.089c-8.8,0-16-7.2-16-16s7.2-16,16-16s16,7.2,16,16
		S312.8,192.089,304,192.089L304,192.089z"/>
</g>
</svg>